<?xml version="1.0" standalone="no"?>
<!DOCTYPE svg PUBLIC "-//W3C//DTD SVG 20010904//EN"
 "http://www.w3.org/TR/2001/REC-SVG-20010904/DTD/svg10.dtd">
<svg version="1.0" xmlns="http://www.w3.org/2000/svg"
 width="590.000000pt" height="590.000000pt" viewBox="0 0 590.000000 590.000000"
 preserveAspectRatio="xMidYMid meet">
<metadata>
Created by potrace 1.11, written by Peter Selinger 2001-2013
</metadata>
<g transform="translate(0.000000,590.000000) scale(0.100000,-0.100000)"
fill="#000000" stroke="none">
<path d="M2758 5896 c-1 -2 -39 -7 -83 -10 -109 -9 -114 -10 -345 -52 -58 -11
-192 -47 -280 -76 -565 -183 -1022 -499 -1409 -973 -283 -347 -502 -823 -587
-1272 -2 -13 -6 -35 -9 -50 -29 -152 -40 -299 -40 -518 1 -286 14 -397 80
-695 48 -219 178 -546 304 -765 33 -58 160 -255 171 -265 3 -3 25 -32 50 -65
114 -152 268 -312 456 -475 87 -75 303 -226 416 -290 77 -44 282 -142 363
-174 39 -16 79 -32 90 -37 19 -8 179 -58 255 -79 19 -6 73 -19 120 -29 80 -18
104 -23 198 -37 20 -3 48 -7 61 -9 138 -23 560 -27 716 -6 112 14 289 46 350
62 22 6 50 13 62 15 12 2 71 20 130 38 918 290 1633 996 1929 1906 25 77 74
260 79 295 1 11 5 31 9 45 9 37 16 79 22 135 3 28 8 53 9 56 18 28 27 493 13
639 -8 85 -30 241 -43 310 -68 351 -224 735 -421 1035 -303 463 -722 829
-1217 1064 -60 28 -114 51 -121 51 -6 0 -16 4 -21 9 -30 29 -465 156 -600 176
-23 3 -50 7 -61 9 -11 2 -44 7 -74 11 -30 3 -68 8 -85 11 -35 5 -481 14 -487
10z"/>
</g>
</svg>
